<?xml version="1.0" encoding="UTF-8" standalone="no"?><!DOCTYPE svg PUBLIC "-//W3C//DTD SVG 1.1//EN" "http://www.w3.org/Graphics/SVG/1.1/DTD/svg11.dtd"><svg width="100%" height="100%" viewBox="0 0 21 22" version="1.1" xmlns="http://www.w3.org/2000/svg" xmlns:xlink="http://www.w3.org/1999/xlink" xml:space="preserve" xmlns:serif="http://www.serif.com/" style="fill-rule:evenodd;clip-rule:evenodd;stroke-linejoin:round;stroke-miterlimit:1.41421;"><path d="M0.172,10.27c0,-2.719 1.08,-5.327 3.003,-7.25c1.923,-1.923 4.531,-3.004 7.251,-3.004c0.016,0 0.033,0 0.049,0c2.72,0 5.328,1.081 7.251,3.004c1.923,1.923 3.003,4.531 3.003,7.25c0,3.306 0,6.691 0,8.937c0,1.449 -1.174,2.624 -2.623,2.624c-0.386,0 -0.764,0 -1.093,0c-0.592,0 -1.072,-0.479 -1.075,-1.071c-0.009,-2.004 -0.03,-6.475 -0.048,-10.393c-0.007,-1.714 -0.799,-3.33 -2.148,-4.386c-1.35,-1.056 -3.499,-1.463 -5.188,-0.933c-1.916,0.601 -2.998,1.829 -3.25,3.572c0,0 0,0 0,0c-0.023,0.163 0.029,0.328 0.142,0.447c0.113,0.12 0.275,0.181 0.439,0.167c0.593,-0.051 1.502,-0.129 2.421,-0.209c0.852,-0.073 1.696,0.208 2.333,0.779c0.637,0.57 1.01,1.378 1.031,2.232c0.011,0.466 0.022,0.906 0.031,1.26c0.005,0.213 -0.079,0.419 -0.231,0.568c-0.153,0.149 -0.36,0.227 -0.573,0.217c-0.361,-0.018 -0.815,-0.041 -1.311,-0.065c-1.223,-0.061 -2.417,0.386 -3.3,1.235c-0.883,0.849 -1.376,2.025 -1.363,3.25c0.009,0.84 0.017,1.638 0.024,2.243c0.003,0.287 -0.109,0.563 -0.311,0.768c-0.202,0.204 -0.477,0.319 -0.765,0.319c-0.325,0 -0.696,0 -1.076,0c-1.449,0 -2.623,-1.175 -2.623,-2.624c0,-2.246 0,-5.631 0,-8.937Z" style="fill:#fff;"/></svg>